<svg width="428" height="397" viewBox="0 0 428 397" fill="none" xmlns="http://www.w3.org/2000/svg">
    <path
        d="M49.5989 0H41.9273C-17.9225 0 -64.3693 52.2188 -57.3906 111.66L-23.6499 399.048C-17.8311 448.61 23.6352 486.296 73.5257 487.365L366.101 493.634C425.223 494.901 472.525 444.865 467.942 385.907L458 258L462.591 165.898C464.646 124.67 441.157 86.416 403.459 69.597L396.991 66.7112C378.438 58.4338 357.804 56.0035 337.836 59.7438L244.191 77.2844C217.841 82.2202 190.612 76.3687 168.615 61.0432L106.764 17.9506C89.9919 6.26484 70.0409 0 49.5989 0Z"
        fill="#657ADC" />
</svg>
