<svg version="1.1" id="Layer_1" xmlns="http://www.w3.org/2000/svg" xmlns:xlink="http://www.w3.org/1999/xlink" x="0px" y="0px"
	 width="100%" viewBox="0 0 1280 1280" enable-background="new 0 0 1280 1280" xml:space="preserve">
<path fill="#E4E6E7" opacity="1.000000" stroke="none" 
	d="
M619.000000,1281.000000 
	C412.666656,1281.000000 206.833328,1281.000000 1.000000,1281.000000 
	C1.000000,854.333313 1.000000,427.666656 1.000000,1.000000 
	C427.666656,1.000000 854.333313,1.000000 1281.000000,1.000000 
	C1281.000000,427.666656 1281.000000,854.333313 1281.000000,1281.000000 
	C1060.500000,1281.000000 840.000000,1281.000000 619.000000,1281.000000 
M142.927139,1161.934692 
	C476.806549,1161.934692 810.685974,1161.934692 1145.369751,1161.934692 
	C1143.350952,1148.448730 1142.124146,1135.896240 1139.503418,1123.641846 
	C1133.847778,1097.194702 1124.482300,1072.065308 1111.670654,1048.147827 
	C1089.300659,1006.386108 1058.855225,971.507263 1022.787048,941.129456 
	C997.115601,919.507996 969.215759,901.299255 939.721558,885.487183 
	C905.911682,867.361389 870.379211,853.264587 833.679199,842.263062 
	C806.761780,834.194031 779.296936,828.407898 751.552246,823.694763 
	C716.713135,817.776489 681.591553,816.080261 646.418030,815.186829 
	C630.692017,814.787354 614.874756,815.828308 599.173401,817.120178 
	C576.889099,818.953735 554.609070,821.131836 532.443481,824.046875 
	C497.442291,828.650024 463.359131,837.521423 429.945770,848.740051 
	C392.727142,861.236206 357.044281,877.234192 323.225067,897.325317 
	C296.533905,913.181946 271.367828,931.166443 248.598724,952.198730 
	C235.482117,964.314880 223.567657,977.784607 211.616669,991.097961 
	C195.141312,1009.451538 181.859650,1030.070557 170.607193,1051.982178 
	C159.024261,1074.537109 149.955566,1098.075439 145.196457,1123.018066 
	C142.756302,1135.807007 141.738358,1148.867432 140.050140,1162.646484 
	C140.712936,1167.810791 144.797058,1165.921509 147.501801,1165.922241 
	C477.437958,1166.004517 807.374146,1166.000122 1137.310303,1165.997803 
	C1138.809692,1165.997803 1140.320801,1166.069946 1141.803101,1165.901855 
	C1142.496704,1165.823364 1143.134399,1165.251587 1143.797485,1164.903442 
	C1143.786133,1164.447510 1143.774780,1163.991455 1143.763306,1163.535522 
	C1141.510986,1163.357056 1139.258667,1163.022339 1137.006226,1163.022217 
	C807.736572,1162.999023 478.466919,1163.002319 149.197296,1162.957886 
	C146.794601,1162.957520 144.391998,1162.320312 142.927139,1161.934692 
M733.211853,782.783691 
	C747.723022,775.017944 762.833862,768.181030 776.614197,759.283325 
	C801.423035,743.264709 822.114990,722.596497 839.696960,698.812744 
	C857.147949,675.206177 870.449158,649.430908 879.743408,621.669922 
	C886.923401,600.223938 891.338684,578.166382 893.202393,555.528625 
	C895.025940,533.378662 894.543274,511.296692 891.615784,489.399109 
	C888.375977,465.165588 881.670959,441.750610 872.242798,419.050781 
	C859.522705,388.425140 841.703369,361.193756 819.227844,337.035492 
	C804.933044,321.670410 788.625061,308.555573 770.856995,297.272369 
	C732.449219,272.882324 690.445068,260.640564 645.060303,260.130188 
	C634.971497,260.016693 624.831848,260.992828 614.776062,262.044952 
	C589.096680,264.731812 564.601868,271.999695 541.516602,283.375671 
	C511.953064,297.944092 486.023529,317.418396 464.116364,342.302856 
	C449.346069,359.080505 436.647827,377.169403 426.176361,396.834167 
	C412.577362,422.372284 403.066772,449.465179 398.416779,477.975922 
	C395.602997,495.228210 394.331909,512.779846 393.284729,530.251953 
	C392.774689,538.761108 394.511200,547.388245 394.975739,555.975769 
	C396.028381,575.436157 399.951538,594.403320 405.596375,612.938354 
	C417.144440,650.856689 435.276825,685.228271 461.605408,715.182434 
	C475.708771,731.227844 491.164093,745.700134 508.717896,757.755615 
	C539.470764,778.875916 573.125000,792.872131 610.309570,798.102417 
	C631.687683,801.109314 653.144836,801.285645 674.372192,798.635742 
	C694.301208,796.148010 713.862671,791.020752 733.211853,782.783691 
z"/>
<path fill="#AEB4B7" opacity="1.000000" stroke="none" 
	d="
M140.077682,1161.805176 
	C141.738358,1148.867432 142.756302,1135.807007 145.196457,1123.018066 
	C149.955566,1098.075439 159.024261,1074.537109 170.607193,1051.982178 
	C181.859650,1030.070557 195.141312,1009.451538 211.616669,991.097961 
	C223.567657,977.784607 235.482117,964.314880 248.598724,952.198730 
	C271.367828,931.166443 296.533905,913.181946 323.225067,897.325317 
	C357.044281,877.234192 392.727142,861.236206 429.945770,848.740051 
	C463.359131,837.521423 497.442291,828.650024 532.443481,824.046875 
	C554.609070,821.131836 576.889099,818.953735 599.173401,817.120178 
	C614.874756,815.828308 630.692017,814.787354 646.418030,815.186829 
	C681.591553,816.080261 716.713135,817.776489 751.552246,823.694763 
	C779.296936,828.407898 806.761780,834.194031 833.679199,842.263062 
	C870.379211,853.264587 905.911682,867.361389 939.721558,885.487183 
	C969.215759,901.299255 997.115601,919.507996 1022.787048,941.129456 
	C1058.855225,971.507263 1089.300659,1006.386108 1111.670654,1048.147827 
	C1124.482300,1072.065308 1133.847778,1097.194702 1139.503418,1123.641846 
	C1142.124146,1135.896240 1143.350952,1148.448730 1145.369751,1161.934692 
	C810.685974,1161.934692 476.806549,1161.934692 142.139313,1161.930542 
	C140.926895,1161.885986 140.502289,1161.845581 140.077682,1161.805176 
z"/>
<path fill="#AEB4B7" opacity="1.000000" stroke="none" 
	d="
M732.845459,782.898926 
	C713.862671,791.020752 694.301208,796.148010 674.372192,798.635742 
	C653.144836,801.285645 631.687683,801.109314 610.309570,798.102417 
	C573.125000,792.872131 539.470764,778.875916 508.717896,757.755615 
	C491.164093,745.700134 475.708771,731.227844 461.605408,715.182434 
	C435.276825,685.228271 417.144440,650.856689 405.596375,612.938354 
	C399.951538,594.403320 396.028381,575.436157 394.975739,555.975769 
	C394.511200,547.388245 392.774689,538.761108 393.284729,530.251953 
	C394.331909,512.779846 395.602997,495.228210 398.416779,477.975922 
	C403.066772,449.465179 412.577362,422.372284 426.176361,396.834167 
	C436.647827,377.169403 449.346069,359.080505 464.116364,342.302856 
	C486.023529,317.418396 511.953064,297.944092 541.516602,283.375671 
	C564.601868,271.999695 589.096680,264.731812 614.776062,262.044952 
	C624.831848,260.992828 634.971497,260.016693 645.060303,260.130188 
	C690.445068,260.640564 732.449219,272.882324 770.856995,297.272369 
	C788.625061,308.555573 804.933044,321.670410 819.227844,337.035492 
	C841.703369,361.193756 859.522705,388.425140 872.242798,419.050781 
	C881.670959,441.750610 888.375977,465.165588 891.615784,489.399109 
	C894.543274,511.296692 895.025940,533.378662 893.202393,555.528625 
	C891.338684,578.166382 886.923401,600.223938 879.743408,621.669922 
	C870.449158,649.430908 857.147949,675.206177 839.696960,698.812744 
	C822.114990,722.596497 801.423035,743.264709 776.614197,759.283325 
	C762.833862,768.181030 747.723022,775.017944 732.845459,782.898926 
z"/>
<path fill="#E4E6E7" opacity="1.000000" stroke="none" 
	d="
M140.063904,1162.225830 
	C140.502289,1161.845581 140.926895,1161.885986 141.670441,1161.953369 
	C144.391998,1162.320312 146.794601,1162.957520 149.197296,1162.957886 
	C478.466919,1163.002319 807.736572,1162.999023 1137.006226,1163.022217 
	C1139.258667,1163.022339 1141.510986,1163.357056 1143.763306,1163.535522 
	C1143.774780,1163.991455 1143.786133,1164.447510 1143.797485,1164.903442 
	C1143.134399,1165.251587 1142.496704,1165.823364 1141.803101,1165.901855 
	C1140.320801,1166.069946 1138.809692,1165.997803 1137.310303,1165.997803 
	C807.374146,1166.000122 477.437958,1166.004517 147.501801,1165.922241 
	C144.797058,1165.921509 140.712936,1167.810791 140.063904,1162.225830 
z"/>
</svg>