<svg width="31" height="30" viewBox="0 0 31 30" fill="none" xmlns="http://www.w3.org/2000/svg">
    <path
        d="M12.9592 6.25C12.9592 5.58696 13.228 4.95107 13.7064 4.48223C14.1848 4.01339 14.8337 3.75 15.5102 3.75C16.1868 3.75 16.8357 4.01339 17.3141 4.48223C17.7925 4.95107 18.0613 5.58696 18.0613 6.25C19.5261 6.92878 20.7748 7.98541 21.6736 9.30662C22.5723 10.6278 23.0873 12.1638 23.1633 13.75V17.5C23.2593 18.2771 23.5401 19.0213 23.9832 19.6727C24.4263 20.324 25.0192 20.8643 25.7143 21.25H5.30615C6.00123 20.8643 6.59417 20.324 7.03726 19.6727C7.48034 19.0213 7.76118 18.2771 7.85717 17.5V13.75C7.93314 12.1638 8.44812 10.6278 9.3469 9.30662C10.2457 7.98541 11.4944 6.92878 12.9592 6.25"
        fill="#657ADC" />
    <path
        d="M11.4287 22V23.25C11.4287 24.2446 11.8587 25.1984 12.6242 25.9017C13.3896 26.6049 14.4278 27 15.5103 27C16.5929 27 17.631 26.6049 18.3965 25.9017C19.1619 25.1984 19.592 24.2446 19.592 23.25V22"
        fill="#657ADC" />
</svg>
