<svg width="54" height="54" viewBox="0 0 54 54" fill="none" xmlns="http://www.w3.org/2000/svg">
    <path
        d="M33.75 18H38.25M33.75 27H38.25M15.75 36H38.25M13.5 9H40.5C44.2279 9 47.25 12.0221 47.25 15.75V38.25C47.25 41.9779 44.2279 45 40.5 45H13.5C9.77208 45 6.75 41.9779 6.75 38.25V15.75C6.75 12.0221 9.77208 9 13.5 9ZM24.75 22.5C24.75 24.9853 22.7353 27 20.25 27C17.7647 27 15.75 24.9853 15.75 22.5C15.75 20.0147 17.7647 18 20.25 18C22.7353 18 24.75 20.0147 24.75 22.5Z"
        stroke="#657ADC" stroke-width="2" stroke-linecap="round" stroke-linejoin="round" />
</svg>
