<svg width="24" height="24" viewBox="0 0 24 24" fill="none" xmlns="http://www.w3.org/2000/svg">
    <path
        d="M23.52 12.2728C23.52 11.4219 23.4436 10.6037 23.3018 9.81824H12V14.4601H18.4582C18.18 15.9601 17.3345 17.231 16.0636 18.0819V21.0928H19.9418C22.2109 19.0037 23.52 15.9273 23.52 12.2728Z"
        fill="#4285F4" />
    <path
        d="M12.0005 24.0002C15.2405 24.0002 17.9569 22.9256 19.9423 21.0929L16.0641 18.082C14.9896 18.802 13.615 19.2274 12.0005 19.2274C8.87504 19.2274 6.22958 17.1165 5.28595 14.2802H1.27686V17.3892C3.2514 21.3111 7.30958 24.0002 12.0005 24.0002Z"
        fill="#34A853" />
    <path
        d="M5.28546 14.2801C5.04546 13.5601 4.90909 12.791 4.90909 12.0001C4.90909 11.2091 5.04546 10.4401 5.28546 9.72005V6.61096H1.27636C0.436364 8.28317 -0.000740319 10.1287 9.41222e-07 12.0001C9.41222e-07 13.9364 0.463637 15.7691 1.27636 17.3891L5.28546 14.2801Z"
        fill="#FBBC05" />
    <path
        d="M12.0005 4.77273C13.7623 4.77273 15.3441 5.37818 16.5878 6.56727L20.0296 3.12545C17.9514 1.18909 15.235 0 12.0005 0C7.30958 0 3.2514 2.68909 1.27686 6.61091L5.28595 9.72C6.22958 6.88364 8.87504 4.77273 12.0005 4.77273Z"
        fill="#EA4335" />
</svg>
