<svg width="36" height="36" viewBox="0 0 36 36" fill="none" xmlns="http://www.w3.org/2000/svg">
    <g clip-path="url(#clip0_1408_1200)">
        <path
            d="M28.2082 12.2021L20.4309 6.15293C19.7484 5.62196 18.9083 5.33368 18.0436 5.33368C17.1789 5.33368 16.3388 5.62196 15.6563 6.15293L7.87758 12.2021C7.4101 12.5656 7.03188 13.0312 6.77181 13.5632C6.51173 14.0953 6.37667 14.6797 6.37695 15.2719V25.7719C6.37695 26.5454 6.68424 27.2873 7.23123 27.8343C7.77821 28.3813 8.52007 28.6885 9.29362 28.6885H26.7936C27.5672 28.6885 28.309 28.3813 28.856 27.8343C29.403 27.2873 29.7103 26.5454 29.7103 25.7719V15.2719C29.7103 14.0717 29.1561 12.9386 28.2082 12.2021Z"
            fill="#657ADC" stroke="#657ADC" stroke-width="2" stroke-linecap="round"
            stroke-linejoin="round" />
        <path d="M23.8332 21.375C20.6103 23.319 15.3865 23.319 12.1665 21.375" stroke="white"
            stroke-width="2" stroke-linecap="round" stroke-linejoin="round" />
    </g>
    <defs>
        <clipPath id="clip0_1408_1200">
            <rect width="35" height="35" fill="white" transform="translate(0.5 0.5)" />
        </clipPath>
    </defs>
</svg>
