<svg width="19" height="22" viewBox="0 0 19 22" fill="none" xmlns="http://www.w3.org/2000/svg">
    <path
        d="M15.5106 15.7762L11.0024 20.367C10.6039 20.7723 10.0637 21 9.50053 21C8.93732 21 8.39714 20.7723 7.99869 20.367L3.48944 15.7762C2.30074 14.5656 1.49124 13.0233 1.1633 11.3443C0.835358 9.66522 1.00371 7.92486 1.64707 6.34325C2.29043 4.76164 3.37989 3.40982 4.7777 2.45873C6.17551 1.50764 7.81888 1 9.5 1C11.1811 1 12.8245 1.50764 14.2223 2.45873C15.6201 3.40982 16.7096 4.76164 17.3529 6.34325C17.9963 7.92486 18.1646 9.66522 17.8367 11.3443C17.5088 13.0233 16.6993 14.5656 15.5106 15.7762Z"
        fill="#E9E9FF" stroke="#696888" stroke-linecap="round" stroke-linejoin="round" />
    <path
        d="M9.5 13C11.433 13 13 11.433 13 9.5C13 7.567 11.433 6 9.5 6C7.567 6 6 7.567 6 9.5C6 11.433 7.567 13 9.5 13Z"
        fill="white" stroke="#696888" stroke-linecap="round" stroke-linejoin="round" />
</svg>
