<svg width="22" height="23" viewBox="0 0 22 23" fill="none" xmlns="http://www.w3.org/2000/svg">
    <path
        d="M11 13.3333C12.5188 13.3333 13.75 12.1021 13.75 10.5833C13.75 9.06453 12.5188 7.83331 11 7.83331C9.48122 7.83331 8.25 9.06453 8.25 10.5833C8.25 12.1021 9.48122 13.3333 11 13.3333Z"
        stroke="#F26465" stroke-width="1.5" stroke-linecap="round" stroke-linejoin="round" />
    <path
        d="M16.1859 15.7689L12.2965 19.6583C11.9527 20.0017 11.4867 20.1946 11.0008 20.1946C10.5149 20.1946 10.0488 20.0017 9.70508 19.6583L5.81475 15.7689C4.7892 14.7433 4.0908 13.4366 3.80788 12.0141C3.52495 10.5916 3.67019 9.11711 4.22525 7.77715C4.7803 6.43718 5.72023 5.29189 6.92619 4.48611C8.13214 3.68033 9.54995 3.25024 11.0003 3.25024C12.4507 3.25024 13.8685 3.68033 15.0745 4.48611C16.2804 5.29189 17.2204 6.43718 17.7754 7.77715C18.3305 9.11711 18.4757 10.5916 18.1928 12.0141C17.9099 13.4366 17.2115 14.7433 16.1859 15.7689V15.7689Z"
        stroke="#F26465" stroke-width="1.5" stroke-linecap="round" stroke-linejoin="round" />
</svg>
