<svg width="41" height="41" viewBox="0 0 41 41" fill="none" xmlns="http://www.w3.org/2000/svg">
    <path
        d="M30.1642 28.4557L22.9158 35.7042C22.2751 36.3442 21.4066 36.7037 20.501 36.7037C19.5955 36.7037 18.7269 36.3442 18.0863 35.7042L10.8361 28.4557C8.92488 26.5444 7.62333 24.1092 7.09605 21.4581C6.56878 18.8071 6.83946 16.0592 7.87388 13.562C8.9083 11.0648 10.66 8.93037 12.9074 7.42869C15.1549 5.92701 17.7972 5.12549 20.5002 5.12549C23.2032 5.12549 25.8454 5.92701 28.0929 7.42869C30.3403 8.93037 32.092 11.0648 33.1265 13.562C34.1609 16.0592 34.4316 18.8071 33.9043 21.4581C33.377 24.1092 32.0755 26.5444 30.1642 28.4557Z"
        fill="url(#paint0_linear_346_587)" />
    <path
        d="M20.5 23.9167C23.3305 23.9167 25.625 21.6221 25.625 18.7917C25.625 15.9612 23.3305 13.6667 20.5 13.6667C17.6695 13.6667 15.375 15.9612 15.375 18.7917C15.375 21.6221 17.6695 23.9167 20.5 23.9167Z"
        fill="white" />
    <defs>
        <linearGradient id="paint0_linear_346_587" x1="22.0621" y1="36.7037" x2="22.062"
            y2="5.12549" gradientUnits="userSpaceOnUse">
            <stop stop-color="#514EB6" />
            <stop offset="1" stop-color="#736FFA" />
        </linearGradient>
    </defs>
</svg>
