<svg width="21" height="21" viewBox="0 0 21 21" fill="none" xmlns="http://www.w3.org/2000/svg">
    <path
        d="M5.47559 12.9762C6.8563 12.9762 7.97559 11.8569 7.97559 10.4762C7.97559 9.09548 6.8563 7.9762 5.47559 7.9762C4.09487 7.9762 2.97559 9.09548 2.97559 10.4762C2.97559 11.8569 4.09487 12.9762 5.47559 12.9762Z"
        stroke="#0F0F17" stroke-width="1.5" stroke-linecap="round" stroke-linejoin="round" />
    <path
        d="M15.4756 7.9762C16.8563 7.9762 17.9756 6.85691 17.9756 5.4762C17.9756 4.09548 16.8563 2.9762 15.4756 2.9762C14.0949 2.9762 12.9756 4.09548 12.9756 5.4762C12.9756 6.85691 14.0949 7.9762 15.4756 7.9762Z"
        stroke="#0F0F17" stroke-width="1.5" stroke-linecap="round" stroke-linejoin="round" />
    <path
        d="M15.4756 17.9762C16.8563 17.9762 17.9756 16.8569 17.9756 15.4762C17.9756 14.0955 16.8563 12.9762 15.4756 12.9762C14.0949 12.9762 12.9756 14.0955 12.9756 15.4762C12.9756 16.8569 14.0949 17.9762 15.4756 17.9762Z"
        stroke="#0F0F17" stroke-width="1.5" stroke-linecap="round" stroke-linejoin="round" />
    <path d="M7.72559 9.3929L13.2256 6.55957" stroke="#0F0F17" stroke-width="1.5"
        stroke-linecap="round" stroke-linejoin="round" />
    <path d="M7.72559 11.5596L13.2256 14.3929" stroke="#0F0F17" stroke-width="1.5"
        stroke-linecap="round" stroke-linejoin="round" />
</svg>
