<svg width="20" height="20" viewBox="0 0 20 20" fill="none" xmlns="http://www.w3.org/2000/svg">
    <circle cx="10.5" cy="6" r="3.5" stroke="#696888" stroke-width="1.5" />
    <path
        d="M8.93704 12.25H12.063V10.75H8.93704V12.25ZM14.7977 16.75H6.20225V18.25H14.7977V16.75ZM6.20225 16.75C5.51852 16.75 5.00018 16.1332 5.11787 15.4597L3.64025 15.2015C3.3622 16.7928 4.58685 18.25 6.20225 18.25V16.75ZM15.8821 15.4597C15.9998 16.1332 15.4815 16.75 14.7977 16.75V18.25C16.4132 18.25 17.6378 16.7928 17.3597 15.2015L15.8821 15.4597ZM12.063 12.25C13.9467 12.25 15.5579 13.6041 15.8821 15.4597L17.3597 15.2015C16.9101 12.6279 14.6755 10.75 12.063 10.75V12.25ZM8.93704 10.75C6.32446 10.75 4.08994 12.6279 3.64025 15.2015L5.11787 15.4597C5.44211 13.6041 7.05327 12.25 8.93704 12.25V10.75Z"
        fill="#696888" />
</svg>
