<svg width="19" height="19" viewBox="0 0 19 19" fill="none" xmlns="http://www.w3.org/2000/svg">
    <path
        d="M13.4667 1V0.25V1ZM3.07778 1V0.25V1ZM1 3.125H0.25H1ZM3.07778 5.25V6V5.25ZM15.5444 5.25V6V5.25ZM15.8333 9.5C15.8333 9.91421 16.1691 10.25 16.5833 10.25C16.9975 10.25 17.3333 9.91421 17.3333 9.5H15.8333ZM17.3333 13.75C17.3333 13.3358 16.9975 13 16.5833 13C16.1691 13 15.8333 13.3358 15.8333 13.75H17.3333ZM1 15.875H0.25H1ZM15.2556 5.25V2.0625H13.7556V5.25H15.2556ZM15.2556 2.0625C15.2556 1.58717 15.0711 1.128 14.7375 0.786861L13.665 1.83554C13.7211 1.89291 13.7556 1.97425 13.7556 2.0625H15.2556ZM14.7375 0.786861C14.4034 0.445151 13.9466 0.25 13.4667 0.25V1.75C13.5378 1.75 13.6095 1.77873 13.665 1.83554L14.7375 0.786861ZM13.4667 0.25H3.07778V1.75H13.4667V0.25ZM3.07778 0.25C2.3223 0.25 1.60126 0.557092 1.07231 1.09806L2.14482 2.14674C2.39519 1.89067 2.73114 1.75 3.07778 1.75V0.25ZM1.07231 1.09806C0.543925 1.63846 0.25 2.36787 0.25 3.125H1.75C1.75 2.75496 1.89389 2.40337 2.14482 2.14674L1.07231 1.09806ZM0.25 3.125C0.25 3.88213 0.543925 4.61154 1.07231 5.15194L2.14482 4.10326C1.89389 3.84663 1.75 3.49504 1.75 3.125H0.25ZM1.07231 5.15194C1.60126 5.69291 2.3223 6 3.07778 6V4.5C2.73114 4.5 2.39519 4.35933 2.14482 4.10326L1.07231 5.15194ZM3.07778 6H15.5444V4.5H3.07778V6ZM15.5444 6C15.6156 6 15.6873 6.02873 15.7428 6.08554L16.8153 5.03686C16.4812 4.69515 16.0244 4.5 15.5444 4.5V6ZM15.7428 6.08554C15.7989 6.14291 15.8333 6.22425 15.8333 6.3125H17.3333C17.3333 5.83717 17.1489 5.378 16.8153 5.03686L15.7428 6.08554ZM15.8333 6.3125V9.5H17.3333V6.3125H15.8333ZM15.8333 13.75V16.9375H17.3333V13.75H15.8333ZM15.8333 16.9375C15.8333 17.0258 15.7989 17.1071 15.7428 17.1645L16.8153 18.2131C17.1489 17.872 17.3333 17.4128 17.3333 16.9375H15.8333ZM15.7428 17.1645C15.6873 17.2213 15.6156 17.25 15.5444 17.25V18.75C16.0244 18.75 16.4812 18.5549 16.8153 18.2131L15.7428 17.1645ZM15.5444 17.25H3.07778V18.75H15.5444V17.25ZM3.07778 17.25C2.73114 17.25 2.39519 17.1093 2.14482 16.8533L1.07231 17.9019C1.60126 18.4429 2.3223 18.75 3.07778 18.75V17.25ZM2.14482 16.8533C1.89389 16.5966 1.75 16.245 1.75 15.875H0.25C0.25 16.6321 0.543926 17.3615 1.07231 17.9019L2.14482 16.8533ZM1.75 15.875V3.125H0.25V15.875H1.75ZM17.3333 9.5V7.32778H15.8333V9.5H17.3333ZM17.3333 7.32778C17.3333 5.76604 16.0673 4.5 14.5056 4.5V6C15.2389 6 15.8333 6.59447 15.8333 7.32778H17.3333Z"
        fill="white" />
    <path
        d="M17.9997 9.5V13.75H14.2219C13.7209 13.75 13.2405 13.5261 12.8863 13.1276C12.532 12.7291 12.333 12.1886 12.333 11.625C12.333 11.0614 12.532 10.5209 12.8863 10.1224C13.2405 9.72388 13.7209 9.5 14.2219 9.5H17.9997Z"
        stroke="white" stroke-width="1.5" stroke-linecap="round" stroke-linejoin="round" />
</svg>
