<svg width="428" height="284" viewBox="0 0 428 284" fill="none" xmlns="http://www.w3.org/2000/svg">
    <path
        d="M312 69.9401C312 97.495 271.548 178.753 248.355 223.077C243.481 232.4 232.425 235.746 223.669 230.556C220.721 228.808 218.287 226.217 216.645 223.077C193.452 178.753 153 97.495 153 69.9401C153 31.3141 188.592 0 232.5 0C276.408 0 312 31.3141 312 69.9401Z"
        fill="#514EB6" />
    <path
        d="M233 122C256.748 122 276 102.748 276 79C276 55.2518 256.748 36 233 36C209.252 36 190 55.2518 190 79C190 102.748 209.252 122 233 122Z"
        fill="white" />
    <path
        d="M52 118C66.3594 118 78 106.359 78 92C78 77.6406 66.3594 66 52 66C37.6406 66 26 77.6406 26 92C26 106.359 37.6406 118 52 118Z"
        fill="#F26465" />
    <path
        d="M233 284C267.794 284 296 281.761 296 279C296 276.239 267.794 274 233 274C198.206 274 170 276.239 170 279C170 281.761 198.206 284 233 284Z"
        fill="#514EB6" />
    <path opacity="0.4"
        d="M32 128C40.2843 128 47 121.284 47 113C47 104.716 40.2843 98 32 98C23.7157 98 17 104.716 17 113C17 121.284 23.7157 128 32 128Z"
        fill="#514EB6" />
    <path
        d="M382 190.139C264.231 146.275 120.594 189.038 37.6638 276.513C37.1924 277.004 36.721 277.502 36.2646 278H35C35.434 277.502 35.883 277.004 36.3244 276.513C120.976 182.385 262.704 144.87 382 190.139Z"
        fill="#272759" />
    <path
        d="M414 205C403.651 199.313 392.959 194.3 382 190C392.989 194.231 403.681 199.244 414 205Z"
        fill="#272759" />
    <path opacity="0.4"
        d="M349.5 161C358.613 161 366 153.613 366 144.5C366 135.387 358.613 128 349.5 128C340.387 128 333 135.387 333 144.5C333 153.613 340.387 161 349.5 161Z"
        fill="#514EB6" />
    <path
        d="M351.364 270.399C352.56 275.092 356.673 278 356.673 278C356.673 278 358.839 273.3 357.636 268.601C356.433 263.901 352.327 261 352.327 261C352.327 261 350.161 265.7 351.364 270.399Z"
        fill="#272759" />
    <path
        d="M352.97 268.894C356.56 272.48 357 278 357 278C357 278 351.619 277.699 348.03 274.106C344.44 270.512 344 265 344 265C344 265 349.381 265.301 352.97 268.894Z"
        fill="#514EB6" />
    <path d="M3 205.078V212.595L2 213V205C2.33333 205.023 2.66667 205.054 3 205.078Z"
        fill="#272759" />
    <path
        d="M25.1723 276.49C25.0685 276.66 24.9573 276.83 24.8461 277H2V205.945L2.35581 205.59L5.38763 209.03V204H15.0242V219.963L24.7572 230.991L24.8461 231.095C24.9647 231.465 25.0759 231.835 25.1871 232.204C25.1871 232.204 25.1871 232.212 25.1945 232.219C26.6548 236.879 27.8483 241.621 28.7823 246.414C30.9023 257.724 30.5836 268.094 25.1723 276.49Z"
        fill="#CCCCCC" />
    <path d="M10 245H4V250H10V245Z" fill="#272759" />
    <path d="M10 254H4V259H10V254Z" fill="#272759" />
    <path
        d="M201.092 234.617L198 229.449L226.838 204.653C248.163 194.361 273.864 197.327 301 204.653V211.882L274.216 240.805L243.316 247L201.085 234.602L201.092 234.617Z"
        fill="#272759" />
    <path
        d="M313.225 219.963C318.29 214.319 318.991 208.956 313.225 204H303.627V209.03L300.607 205.59L276.17 230.074L272.094 234.157L267 254.558L276.162 277H323V231.095L313.218 219.963H313.225Z"
        fill="#CCCCCC" />
    <path d="M197.43 230H276V277H197.43C187.925 266.835 192.865 248.314 197.43 230Z"
        fill="#F2F2F2" />
    <path d="M265 245H249V259H265V245Z" fill="#272759" />
    <path d="M242 244H227V277H242V244Z" fill="#CCCCCC" />
    <path d="M211 249V244H205V249H210.499H211Z" fill="#272759" />
    <path d="M210.499 254H205V259H211V254H210.499Z" fill="#272759" />
    <path d="M221 244H215V249H221V244Z" fill="#272759" />
    <path d="M221 254H215V259H221V254Z" fill="#272759" />
    <path d="M298 250V245H292V250H297.499H298Z" fill="#272759" />
    <path d="M297.499 254H292V259H298V254H297.499Z" fill="#272759" />
    <path d="M308 245H302V250H308V245Z" fill="#272759" />
    <path d="M308 254H302V259H308V254Z" fill="#272759" />
    <path d="M61.1549 148.545L56 144.467L84.8451 119H158V141.416L110.605 173L61.1549 148.545Z"
        fill="#272759" />
    <path
        d="M171.441 133.389V119.513H161.767V122.913L158.158 119L134.553 144.653L125.318 150.805L111 255.41L132.596 277H182.79C190.477 238.32 196.579 198.591 182.79 145.672L171.441 133.381V133.389Z"
        fill="#CCCCCC" />
    <path d="M56.0363 144H134V277H56.0363C47.5043 225.333 43.3387 177.411 56.0363 144Z"
        fill="#F2F2F2" />
    <path d="M101 245H86V277H101V245Z" fill="#CCCCCC" />
    <path d="M71 254V249H65V254H70.5H71Z" fill="#272759" />
    <path d="M70.5 258H65V263H71V258H70.5Z" fill="#272759" />
    <path d="M81 249H75V254H81V249Z" fill="#272759" />
    <path d="M112.499 258H107V263H113V258H112.499Z" fill="#272759" />
    <path d="M124 249H117V254H124V249Z" fill="#272759" />
    <path d="M124 258H117V263H124V258Z" fill="#272759" />
    <path d="M157 151V146H150V151H156.416H157Z" fill="#272759" />
    <path d="M156.416 155H150V160H157V155H156.416Z" fill="#272759" />
    <path d="M167 146H161V151H167V146Z" fill="#272759" />
    <path d="M167 155H161V160H167V155Z" fill="#272759" />
    <path d="M157 180V175H150V180H156.416H157Z" fill="#272759" />
    <path d="M156.416 184H150V189H157V184H156.416Z" fill="#272759" />
    <path d="M167 175H161V180H167V175Z" fill="#272759" />
    <path d="M167 184H161V189H167V184Z" fill="#272759" />
    <path d="M157 209V204H150V209H156.416H157Z" fill="#272759" />
    <path d="M156.416 213H150V218H157V213H156.416Z" fill="#272759" />
    <path d="M167 204H161V209H167V204Z" fill="#272759" />
    <path d="M167 213H161V218H167V213Z" fill="#272759" />
    <path d="M157 238V232H150V238H156.416H157Z" fill="#272759" />
    <path d="M156.416 242H150V247H157V242H156.416Z" fill="#272759" />
    <path d="M167 232H161V238H167V232Z" fill="#272759" />
    <path d="M167 242H161V247H167V242Z" fill="#272759" />
    <path d="M65 151H125V163C105.768 157.866 85.7176 158.236 65 163V151Z" fill="#272759" />
    <path d="M65 176C83.7223 181.337 103.727 181.337 125 176V188H65V176Z" fill="#272759" />
    <path d="M65 200H125V213C104.552 206.166 84.5324 205.844 65 213V200Z" fill="#272759" />
    <path d="M65 225C84.5699 232.894 104.582 232.572 125 225V238H65V225Z" fill="#272759" />
    <path
        d="M385.914 204H428V223.994L424.241 225.153L411.735 229L392.114 224.518L372.517 220.044L362.167 217.681L357 215.799C361.298 209.981 369.117 205.41 385.914 204.007V204Z"
        fill="#272759" />
    <path
        d="M428 216V277H357.073C357.051 276.963 357.036 276.926 357.013 276.889C356.998 276.845 356.976 276.8 356.953 276.763C355.846 274.558 354.851 272.359 353.976 270.169C346.532 251.607 347.34 233.541 357.073 216H428Z"
        fill="#F2F2F2" />
    <path d="M402 245H388V277H402V245Z" fill="#CCCCCC" />
    <path d="M372 254V249H366V254H371.5H372Z" fill="#272759" />
    <path d="M371.5 258H366V263H372V258H371.5Z" fill="#272759" />
    <path d="M382 249H376V254H382V249Z" fill="#272759" />
    <path d="M382 258H376V263H382V258Z" fill="#272759" />
    <path d="M414 254V249H408V254H413.499H414Z" fill="#272759" />
    <path d="M413.499 258H408V263H414V258H413.499Z" fill="#272759" />
    <path d="M425 249H418V254H425V249Z" fill="#272759" />
    <path d="M425 258H418V263H425V258Z" fill="#272759" />
    <path d="M373 180H381.903C400.181 180 415 194.775 415 213H373V180Z" fill="#272759" />
    <path d="M104 90H112.903C131.181 90 146 104.775 146 123H104V90Z" fill="#272759" />
    <path d="M246 173H254.903C273.181 173 288 187.775 288 206H246V173Z" fill="#272759" />
    <path d="M415 225H373V238H415V225Z" fill="#272759" />
    <path d="M428 277H2V278H428V277Z" fill="#272759" />
    <path d="M41 218H40V277H41V218Z" fill="#272759" />
    <path
        d="M54.9995 225.433C55.0943 246.139 40.9204 263 40.9204 263C40.9204 263 22.7729 245.922 26.506 225.567C30.2609 205.101 41.9631 188.09 40.5851 188C40.5851 188 54.9047 204.718 54.9995 225.433Z"
        fill="#514EB6" />
    <path d="M191 218H189V277H191V218Z" fill="#272759" />
    <path
        d="M204.917 225.433C206.295 246.102 190.135 263 190.135 263C190.135 263 175.1 246.282 175 225.567C174.901 204.853 189.782 188 189.782 188C188.336 193.675 203.799 208.707 204.917 225.433Z"
        fill="#514EB6" />
    <path d="M94 122.167L158.815 119L186 141.67L181.196 146L138.142 145.039L94 122.167Z"
        fill="#272759" />
    <path
        d="M29 227.664L25.5048 230.815L25.0791 231.195L24.1903 232L2.15091 231.508V205.536C1.43394 205.38 0.716971 205.231 0 205.089L1.78496 205L2.15091 205.305L5.564 208.144L15.273 216.235L26.1172 225.265L29 227.664Z"
        fill="#272759" />
    <path d="M236 208.167L300.815 205L328 227.67L323.196 232L280.142 231.039L236 208.167Z"
        fill="#272759" />
</svg>
