<svg width="317" height="367" viewBox="0 0 317 367" fill="none" xmlns="http://www.w3.org/2000/svg">
    <path
        d="M261.33 353.145C259.644 354.028 257.95 355.216 256.673 357.327C256.432 357.728 256.215 358.162 256.015 358.603C256.585 354.565 257.717 350.768 259.347 347.606C259.949 346.442 258.937 344.732 258.335 345.904C255.75 347.244 254.658 350.391 254.24 354.108C253.727 352.775 253.092 351.571 252.354 350.576C252.049 350.166 251.631 350.078 251.342 350.576C251.093 351.001 251.037 351.868 251.342 352.278C250.226 358.122 253.1 359.928 254.096 362.842C254.12 363.484 254.144 364.126 254.16 364.744C254.184 365.362 254.417 365.732 254.69 365.852C254.819 366.197 255.059 366.43 255.3 366.43C255.71 366.43 255.999 365.876 256.015 365.226C256.095 362.834 256.336 358.684 257.757 358.9C260.784 359.366 260.92 356.926 261.699 355.457C262.309 354.309 262.205 352.671 261.314 353.137L261.33 353.145Z"
        fill="#E6E6E6" />
    <path
        d="M174.951 367H33.3107C16.0412 367 1.99121 352.952 1.99121 335.685V31.3152C1.99121 14.0481 16.0412 0 33.3107 0H174.951C192.22 0 206.27 14.0481 206.27 31.3152V335.677C206.27 352.944 192.22 366.992 174.951 366.992V367Z"
        fill="#140D0D" />
    <path
        d="M206.278 111.951C205.547 111.951 204.953 112.545 204.953 113.276V155.669C204.953 156.399 205.547 156.993 206.278 156.993C207.008 156.993 207.603 156.399 207.603 155.669V113.276C207.603 112.545 207.008 111.951 206.278 111.951Z"
        fill="#140D0D" />
    <path
        d="M203.291 31.3152V335.677C203.291 350.704 191.594 363.002 176.797 363.958C176.58 363.974 176.364 363.982 176.131 363.99C175.737 364.006 175.352 364.014 174.951 364.014C174.951 364.014 173.489 363.909 170.832 363.709C168.142 363.508 164.224 363.211 159.343 362.818C157.882 362.705 156.332 362.577 154.703 362.449C151.459 362.184 147.894 361.895 144.073 361.557C142.547 361.429 140.974 361.293 139.36 361.156C131.131 360.45 121.914 359.623 112.199 358.676C110.553 358.523 108.9 358.363 107.23 358.202C106.796 358.154 106.346 358.114 105.905 358.065C98.9762 357.383 4.96973 339.217 4.96973 335.669V31.3152C4.96973 15.6617 17.6549 2.97827 33.3106 2.97827H50.2348C52.9404 2.97827 55.1081 5.08147 55.341 7.7787C55.357 7.9553 55.3811 8.13994 55.4132 8.31654C55.903 11.0298 58.3918 12.9163 61.1456 12.9163H147.116C149.869 12.9163 152.358 11.0298 152.848 8.31654C152.88 8.13994 152.904 7.9553 152.92 7.7787C153.153 5.08147 155.329 2.97827 158.026 2.97827H174.951C190.606 2.97827 203.291 15.6617 203.291 31.3152Z"
        fill="white" />
    <path
        d="M1.32471 80.1543C0.594114 80.1543 0 80.7483 0 81.4788V92.0751C0 92.8056 0.594114 93.3996 1.32471 93.3996C2.05531 93.3996 2.64943 92.8056 2.64943 92.0751V81.4788C2.64943 80.7483 2.05531 80.1543 1.32471 80.1543Z"
        fill="#140D0D" />
    <path
        d="M1.32471 111.951C0.594114 111.951 0 112.545 0 113.276V133.81C0 134.54 0.594114 135.135 1.32471 135.135C2.05531 135.135 2.64943 134.54 2.64943 133.81V113.276C2.64943 112.545 2.05531 111.951 1.32471 111.951Z"
        fill="#140D0D" />
    <path
        d="M1.32471 141.099C0.594114 141.099 0 141.693 0 142.423V162.958C0 163.688 0.594114 164.282 1.32471 164.282C2.05531 164.282 2.64943 163.688 2.64943 162.958V142.423C2.64943 141.693 2.05531 141.099 1.32471 141.099Z"
        fill="#140D0D" />
    <path
        d="M49.7692 7.61816H24.431C24.2936 7.61816 24.1821 7.72958 24.1821 7.86702V10.6847C24.1821 10.8221 24.2936 10.9335 24.431 10.9335H49.7692C49.9066 10.9335 50.0181 10.8221 50.0181 10.6847V7.86702C50.0181 7.72958 49.9066 7.61816 49.7692 7.61816Z"
        fill="#E6E6E6" />
    <path
        d="M162.217 10.9334C163.681 10.9334 164.867 9.74736 164.867 8.28432C164.867 6.82128 163.681 5.63525 162.217 5.63525C160.754 5.63525 159.568 6.82128 159.568 8.28432C159.568 9.74736 160.754 10.9334 162.217 10.9334Z"
        fill="#E6E6E6" />
    <path
        d="M169.507 10.9334C170.971 10.9334 172.157 9.74736 172.157 8.28432C172.157 6.82128 170.971 5.63525 169.507 5.63525C168.044 5.63525 166.858 6.82128 166.858 8.28432C166.858 9.74736 168.044 10.9334 169.507 10.9334Z"
        fill="#E6E6E6" />
    <path
        d="M176.789 10.9334C178.252 10.9334 179.439 9.74736 179.439 8.28432C179.439 6.82128 178.252 5.63525 176.789 5.63525C175.326 5.63525 174.14 6.82128 174.14 8.28432C174.14 9.74736 175.326 10.9334 176.789 10.9334Z"
        fill="#E6E6E6" />
    <path d="M129.629 349.661L135.747 348.119L131.564 319.887L122.54 322.159L129.629 349.661Z"
        fill="#FFB6B6" />
    <path
        d="M153.988 356.556C154.269 357.584 153.771 358.619 152.88 358.868L140.821 362.207C140.821 362.207 138.316 357.768 132.905 357.054L134.463 363.966L128.241 365.691L125.952 354.509C125.952 354.509 122.661 349.099 125.286 345.141C127.911 341.184 125.23 342.38 125.23 342.38L124.708 335.211L134.415 333.71L137.433 344.346L144.924 353.658L152.535 355.111C153.209 355.24 153.779 355.802 153.988 356.548V356.556Z"
        fill="#170F0F" />
    <path d="M71.0605 344.748L76.9535 346.988L89.6949 321.452L80.9919 318.153L71.0605 344.748Z"
        fill="#FFB6B6" />
    <path
        d="M87.0776 364.351C86.7243 365.354 85.7207 365.916 84.8456 365.611L73.0436 361.445C73.0436 361.445 73.5253 356.372 69.503 352.687L66.8215 359.245L60.7358 357.094L65.264 346.618C65.264 346.618 65.6654 340.301 70.0811 338.559C74.4968 336.817 71.6145 336.255 71.6145 336.255L75.2916 330.082L84.107 334.408L80.4941 344.86L81.305 356.789L86.7083 362.336C87.19 362.826 87.3345 363.62 87.0776 364.343V364.351Z"
        fill="#170F0F" />
    <path
        d="M96.6557 92.284H65.3683C65.4165 90.815 65.1034 89.346 64.4611 88.0294C64.4451 89.4905 64.1159 90.9514 63.5137 92.284H62.0927C59.925 92.284 58.1587 90.518 58.1587 88.3505V68.025C58.1587 58.0709 65.9785 49.8668 75.9179 49.3932C76.2149 49.3772 76.504 49.3691 76.801 49.3691C84.9019 49.3691 92.1356 54.6191 94.5923 62.4058C98.2052 60.736 100.373 70.2085 101.81 85.26C102.902 88.7439 100.301 92.292 96.6557 92.292V92.284Z"
        fill="#170F0F" />
    <path
        d="M158.058 208.506C159.608 212.182 158.974 215.963 156.629 216.951C154.285 217.938 151.138 215.755 149.58 212.078C148.898 210.473 148.641 208.843 148.761 207.43L142.387 191.769L149.797 188.935L155.297 204.677C156.389 205.576 157.376 206.892 158.05 208.506H158.058Z"
        fill="#FFB6B6" />
    <path
        d="M89.5022 85.4043L74.545 88.535L76.8411 95.4146L72.2568 148.043L79.9 164.989L126.546 161.168L115.073 138.233C115.073 138.233 119.658 119.12 113.548 115.299C107.438 111.478 97.4906 92.3641 97.4906 92.3641L89.5102 85.4123L89.5022 85.4043Z"
        fill="#F26465" />
    <path
        d="M75.5568 91.5696L62.3096 96.94L66.894 164.218L56.9546 222.321L89.0689 227.675C89.0689 227.675 85.2473 99.2358 82.9511 96.94C80.6549 94.6441 75.5568 91.5696 75.5568 91.5696Z"
        fill="#170F0F" />
    <path
        d="M101.505 99.9661C101.505 99.9661 110.128 94.5155 114.784 98.5533C119.441 102.591 155.304 200.205 155.304 200.205L145.63 204.404L123.447 157.9L101.505 99.9661Z"
        fill="#170F0F" />
    <path
        d="M126.201 264.425L134.952 331.647L122.717 332.41C122.717 332.41 116.358 315.054 109.1 294.608C107.559 290.273 105.969 285.802 104.404 281.323C102.71 276.458 101.016 271.602 99.4098 266.905C95.4437 255.33 91.9593 244.798 89.9762 237.91C89.631 236.706 89.3259 235.606 89.077 234.643C83.722 214.093 80.6631 160.381 80.6631 160.381L125.013 156.56L125.487 157.146L134.952 168.97L134.511 171.467L122.717 237.589L126.201 264.401V264.425Z"
        fill="#170F0F" />
    <path
        d="M122.717 237.613L126.201 264.425L110.521 292.032L109.1 294.616L87.5035 333.855L76.8335 327.81C76.8335 327.81 90.7149 295.925 99.4018 266.914C100.365 263.727 101.256 260.572 102.059 257.497C104.42 248.499 100.55 232.074 102.059 227.547C107.173 212.271 123.841 181.71 131.58 167.871L134.487 171.491L122.693 237.613H122.717Z"
        fill="#170F0F" />
    <path
        d="M97.29 91.7703L112.777 97.7026L153.297 216.204L128.834 220.025L117.361 151.222L97.29 91.7703Z"
        fill="#170F0F" />
    <path
        d="M58.5683 219.688C58.1749 223.662 55.8065 226.672 53.2775 226.423C50.7485 226.174 49.0223 222.746 49.4157 218.781C49.5843 217.039 50.1383 215.49 50.9171 214.31L52.7958 197.508L60.6637 198.56L57.9742 215.016C58.5041 216.324 58.7369 217.954 58.5683 219.696V219.688Z"
        fill="#FFB6B6" />
    <path
        d="M67.6646 96.9398C67.6646 96.9398 57.7252 94.6439 54.6663 99.9982C51.6075 105.353 50.082 209.324 50.082 209.324L60.5995 210.087L66.1392 158.864L67.6646 96.9398Z"
        fill="#170F0F" />
    <path
        d="M80.3497 83.55C89.1291 83.55 96.2463 76.4339 96.2463 67.6556C96.2463 58.8774 89.1291 51.7612 80.3497 51.7612C71.5703 51.7612 64.4531 58.8774 64.4531 67.6556C64.4531 76.4339 71.5703 83.55 80.3497 83.55Z"
        fill="#FFB6B6" />
    <path
        d="M100.301 66.291C100.301 66.291 92.5612 63.9951 87.9207 66.291C81.4818 69.4779 65.0312 66.291 65.0312 66.291V59.1064C65.0312 54.916 68.1544 51.3759 72.3212 50.8541L84.1874 49.3691C93.5086 48.2051 101.738 55.4699 101.738 64.8541C101.738 65.6488 101.096 66.2829 100.309 66.2829L100.301 66.291Z"
        fill="#170F0F" />
    <path
        d="M83.3846 92.284H65.3685C65.4167 90.8149 65.1036 89.3459 64.4613 88.0294C64.4452 89.4904 64.116 90.9514 63.5139 92.284H62.7432V60.1741H76.5041L83.3846 92.284Z"
        fill="#170F0F" />
    <path d="M283.031 361.662H275.597L272.056 332.996H283.031V361.662Z" fill="#FFB6B6" />
    <path
        d="M257.556 361.493C257.324 361.887 257.203 363.139 257.203 363.597C257.203 364.993 258.335 366.117 259.724 366.117H282.75C283.697 366.117 284.468 365.347 284.468 364.399V363.444C284.468 363.444 285.608 360.562 283.264 357.014C283.264 357.014 280.349 359.792 275.998 355.441L274.713 353.113L265.416 359.912L260.262 360.546C259.138 360.683 258.134 360.522 257.556 361.501V361.493Z"
        fill="#170F0F" />
    <path d="M249.231 361.662H241.796L238.256 332.996H249.231V361.662Z" fill="#FFB6B6" />
    <path
        d="M223.756 361.493C223.523 361.887 223.403 363.139 223.403 363.597C223.403 364.993 224.535 366.117 225.924 366.117H248.95C249.897 366.117 250.668 365.347 250.668 364.399V363.444C250.668 363.444 251.808 360.562 249.464 357.014C249.464 357.014 246.549 359.792 242.198 355.441L240.913 353.113L231.616 359.912L226.462 360.546C225.338 360.683 224.334 360.522 223.756 361.501V361.493Z"
        fill="#170F0F" />
    <path
        d="M294.961 182.657L243.225 184.038L237.951 196.456L231.496 277.149L237.011 348.192H253.125V281.146L265.296 239.909L270.129 346.121L286.756 348.192L293.581 275.086L299.787 205.423L294.961 182.657Z"
        fill="#170F0F" />
    <path
        d="M276.576 90.2368L258.64 90.9272L256.569 99.2035C256.569 99.2035 234.498 105.409 235.871 113.685C237.244 121.961 244.149 158.518 244.149 158.518C244.149 158.518 236.562 181.967 241.387 184.728C246.212 187.49 295.973 184.728 295.973 184.728C295.973 184.728 300.019 174.381 297.948 173C295.877 171.619 304.154 105.409 302.773 104.028C301.392 102.647 278.631 95.7517 278.631 95.7517L276.56 90.2368H276.576Z"
        fill="#F26465" />
    <path
        d="M311.757 159.209L313.138 168.866L297.964 203.352L290.377 199.21L298.654 166.795L300.035 154.385L311.757 159.209Z"
        fill="#FFB6B6" />
    <path
        d="M297.273 104.718C297.273 104.718 304.86 101.267 310.376 113.685C315.892 126.104 314.519 152.996 314.519 152.996C314.519 152.996 316.59 155.067 315.209 156.448C313.828 157.828 311.211 154.577 313.828 158.968C315.209 161.28 319.344 160.59 315.209 161.28C311.067 161.97 312.52 160.044 313.828 162.661C314.519 164.042 317.281 164.042 314.519 164.732C311.757 165.422 297.876 164.234 297.876 164.234C297.876 164.234 293.131 161.97 295.893 160.59C298.654 159.209 300.035 158.936 298.654 158.382C297.273 157.828 293.829 157.828 295.893 155.757C297.956 153.686 299.345 153.686 297.964 153.686C296.583 153.686 295.033 150.363 295.033 150.363L297.273 104.718Z"
        fill="#F26465" />
    <path
        d="M297.089 209.123C298.769 204.093 297.71 199.208 294.724 198.211C291.738 197.213 287.956 200.482 286.275 205.511C284.595 210.541 285.654 215.426 288.64 216.423C291.626 217.421 295.409 214.152 297.089 209.123Z"
        fill="#FFB6B6" />
    <path
        d="M215.663 155.942L210.172 164.009L175.721 179.27L172.903 171.098L200.867 152.715L210.252 144.47L215.663 155.942Z"
        fill="#FFB6B6" />
    <path
        d="M241.676 105.923C241.676 105.923 249.608 108.483 245.321 121.375C241.034 134.268 221.886 153.212 221.886 153.212C221.886 153.212 222.022 156.134 220.071 156.223C218.12 156.311 218.369 152.145 217.357 157.154C216.819 159.787 220.344 162.067 216.819 159.787C213.295 157.507 215.663 157.058 214.869 159.875C214.451 161.36 216.49 163.215 213.985 161.866C211.48 160.517 202.023 150.29 202.023 150.29C202.023 150.29 200.048 145.426 203.01 146.261C205.973 147.095 207.185 147.826 206.535 146.493C205.885 145.161 203.34 142.833 206.262 142.696C209.184 142.56 210.204 143.491 209.184 142.56C208.165 141.629 209.257 138.129 209.257 138.129L241.676 105.906V105.923Z"
        fill="#F26465" />
    <path
        d="M171.185 182.941C175.816 180.357 178.326 176.034 176.791 173.285C175.257 170.537 170.259 170.404 165.629 172.988C160.998 175.572 158.488 179.896 160.022 182.644C161.557 185.393 166.555 185.526 171.185 182.941Z"
        fill="#FFB6B6" />
    <path
        d="M268.395 86.8655C277.542 86.8655 284.958 79.451 284.958 70.3048C284.958 61.1586 277.542 53.7441 268.395 53.7441C259.247 53.7441 251.832 61.1586 251.832 70.3048C251.832 79.451 259.247 86.8655 268.395 86.8655Z"
        fill="#FFB6B6" />
    <path
        d="M255.164 56.9791C256.007 54.5869 258.343 53.142 260.88 53.1982C260.984 53.1982 261.097 53.1982 261.201 53.1982C262.478 53.142 263.706 52.7085 264.951 52.4516C267.287 51.978 269.744 52.1385 271.992 52.9092C272.69 53.15 273.389 53.455 274.135 53.455C274.874 53.455 275.685 53.0456 275.861 52.3312C275.901 52.9814 275.95 53.6317 275.99 54.2819C276.231 53.7601 276.472 53.2303 276.712 52.7085L277.194 54.8037L278.736 53.0537C278.599 53.8243 279.049 54.603 279.659 55.1007C280.269 55.5984 281.024 55.8713 281.746 56.1764C284.861 57.5009 287.792 59.8529 288.683 63.1201C289.253 65.1832 288.956 67.3747 288.651 69.4939C288.386 71.3643 288.097 73.307 287.077 74.8964C286.427 75.9159 285.488 76.7749 285.086 77.9228C284.717 78.9904 284.853 80.2106 284.331 81.214C283.802 82.2175 282.71 82.7874 281.642 83.1647C280.574 83.55 279.434 83.8149 278.519 84.4812C277.596 85.1475 276.528 87.0581 274.521 86.9537L273.87 85.7335C273.204 85.1877 275.669 85.6211 275.693 84.7622C275.717 83.9032 272.73 83.3734 273.148 82.6269C273.798 81.479 274.681 80.4836 275.412 79.3918C276.271 78.1074 276.945 76.6143 276.648 75.049C276.536 74.4389 276.247 73.8689 275.813 73.4274C274.561 72.151 273.172 72.713 271.815 72.8976C270.884 73.026 269.768 72.8815 269.286 72.0708C268.716 71.1235 269.35 69.9274 269.27 68.8277C269.19 67.6637 268.306 66.7084 267.343 66.0421C266.38 65.3758 265.296 64.8942 264.429 64.1075C263.562 63.3208 263.698 63.7302 264.075 62.6224C257.653 67.4389 258.6 59.1224 254.289 60.166C254.497 59.0903 254.778 58.0227 255.148 56.9871L255.164 56.9791Z"
        fill="#170F0F" />
</svg>
