<svg width="336" height="307" viewBox="0 0 336 307" fill="none" xmlns="http://www.w3.org/2000/svg">
    <path
        d="M298.789 289.037C298.911 294.733 298.12 300.414 296.45 305.867C296.391 306.066 296.323 306.261 296.25 306.46H261.825C262.318 304.047 263.099 301.698 264.154 299.471C267.021 293.415 271.695 288.23 276.315 283.084C282.678 275.992 288.885 268.954 289.867 259.732C292.387 263.56 294.399 267.699 295.854 272.043C294.076 272.7 292.44 273.697 291.048 274.976C290.663 275.336 290.252 275.861 290.453 276.362C290.638 276.78 291.156 276.921 291.61 277.014C292.709 277.223 293.808 277.432 294.907 277.632C295.771 277.807 296.65 277.967 297.524 278.133C298.296 281.717 298.716 285.37 298.789 289.033V289.037Z"
        fill="#F2F2F2" />
    <path
        d="M327.71 285.268C322.192 288.61 318.68 293.78 315.818 299.568C313.323 300.132 311.023 301.338 309.142 303.06C308.747 303.42 308.337 303.946 308.547 304.447C308.722 304.865 309.25 305.006 309.704 305.098C310.793 305.307 311.902 305.517 312.991 305.716C312.883 305.959 312.781 306.217 312.673 306.46H276.188C277.843 304.237 279.679 302.146 281.672 300.22C282.107 299.787 282.551 299.383 283.005 298.96C287.654 294.772 292.997 291.416 298.794 289.038C307.926 285.234 317.909 283.935 327.715 285.263L327.71 285.268Z"
        fill="#F2F2F2" />
    <path
        d="M282.267 306.465H249.781C249.606 303.872 249.62 301.275 249.83 298.683C251.256 282.466 259.734 267.685 273.042 258.234C271.357 264.207 272.222 270.151 273.98 276.114C273.736 276.197 273.487 276.265 273.267 276.357C271.489 277.014 269.853 278.011 268.461 279.29C268.076 279.65 267.665 280.175 267.866 280.676C268.041 281.095 268.569 281.236 269.023 281.328C270.122 281.537 271.221 281.746 272.31 281.946C273.189 282.121 274.063 282.282 274.942 282.457C275.352 282.525 275.762 282.607 276.168 282.69C276.226 282.831 276.261 282.958 276.319 283.084C278.375 288.731 280.622 294.427 281.677 300.215C281.935 301.669 282.116 303.133 282.214 304.607C282.248 305.225 282.272 305.842 282.272 306.46L282.267 306.465Z"
        fill="#F2F2F2" />
    <path
        d="M33.6801 21.8973C39.7514 21.8973 44.6732 16.9954 44.6732 10.9487C44.6732 4.90188 39.7514 0 33.6801 0C27.6088 0 22.687 4.90188 22.687 10.9487C22.687 16.9954 27.6088 21.8973 33.6801 21.8973Z"
        fill="#F26465" />
    <path
        d="M58.2886 5.76377C57.6538 3.69174 55.8468 2.19852 53.6834 1.95533C53.6589 1.95533 53.6345 1.95533 53.615 1.95533C53.5857 1.9456 53.5515 1.94074 53.5222 1.93587C48.492 1.28897 42.6903 3.68202 40.5952 8.42919C39.5549 7.01865 37.8896 6.21125 36.1364 6.26475C33.8557 6.41553 31.912 7.97684 31.2772 10.1656C31.2088 10.4331 31.326 10.7152 31.5604 10.8611C31.8925 11.1432 32.2881 11.3427 32.7081 11.4399C33.6213 11.6345 34.5394 11.8096 35.4576 11.9701C37.2499 12.2814 39.0568 12.5343 40.8687 12.7289C44.5509 13.1229 48.2527 13.259 51.9545 13.1472C53.1852 13.1083 54.3768 13.0694 55.505 12.5246C56.3254 12.1209 57.0287 11.5129 57.5415 10.7541C58.5182 9.28523 58.7966 7.45641 58.2935 5.76377H58.2886Z"
        fill="#F0F0F0" />
    <path
        d="M35.4376 20.3651C34.8027 18.2931 32.9957 16.7998 30.8323 16.5566C30.8079 16.5566 30.7835 16.5566 30.7639 16.5566C30.7346 16.5469 30.7004 16.5421 30.6711 16.5372C25.641 15.8903 19.8392 18.2833 17.7441 23.0305C16.7039 21.62 15.0385 20.8126 13.2853 20.8661C11.0047 21.0168 9.06096 22.5782 8.42608 24.7669C8.35771 25.0344 8.47492 25.3165 8.70933 25.4625C9.04142 25.7446 9.437 25.944 9.85699 26.0413C10.7702 26.2358 11.6884 26.4109 12.6065 26.5714C14.3988 26.8827 16.2057 27.1356 18.0176 27.3302C21.6999 27.7242 25.4017 27.8604 29.1035 27.7485C30.3342 27.7096 31.5258 27.6707 32.6539 27.1259C33.4743 26.7222 34.1776 26.1142 34.6904 25.3555C35.6671 23.8866 35.9455 22.0577 35.4425 20.3651H35.4376Z"
        fill="#F0F0F0" />
    <path
        d="M141.208 190.329C140.929 190.738 140.197 191.22 139.914 191.618L140.216 190.699L140.114 190.485L139.464 189.196L122.977 156.102H122.972L95.0182 100.016L94.3785 98.7275L80.5431 70.9644L79.8887 69.6462C80.3819 69.6608 80.8752 69.6803 81.3635 69.7046L82.0228 71.0276L95.8192 98.7178H95.824L96.4638 100.007L123.705 154.667L124.345 155.956L140.832 189.031L141.052 189.473L141.203 190.32L141.208 190.329Z"
        fill="#7D7D95" />
    <path
        d="M139.367 100.017H15.9668C16.2989 99.5838 16.6359 99.1509 16.9826 98.7278H138.351C138.703 99.1558 139.04 99.5838 139.367 100.017Z"
        fill="#7D7D95" />
    <path d="M155 154.677C154.961 155.11 154.917 155.543 154.858 155.966H123.246V154.677H155Z"
        fill="#7D7D95" />
    <path
        d="M20.6648 94.4766V198.272C20.2155 197.801 19.7906 197.324 19.3706 196.847V95.9017C19.7906 95.425 20.2204 94.9484 20.6648 94.4766Z"
        fill="#7D7D95" />
    <path d="M140.514 189.196H20.0151V190.485H140.514V189.196Z" fill="#7D7D95" />
    <path
        d="M140.412 190.329H140.559V190.115C140.515 190.188 140.466 190.261 140.412 190.329ZM139.416 99.8608C139.084 99.428 138.747 98.9951 138.4 98.5719C124.482 81.1834 103.717 70.6093 81.4129 69.5538C80.9196 69.5295 80.4264 69.5101 79.938 69.4955C79.2006 69.476 78.4632 69.4614 77.716 69.4614C56.0618 69.4517 35.3893 78.4645 20.7091 94.3209C20.2646 94.7927 19.8349 95.2693 19.4149 95.746C18.5944 96.6701 17.7984 97.6089 17.0317 98.5719C16.68 98.9999 16.3431 99.428 16.0159 99.8608C-6.55639 129.171 -5.13037 170.29 19.4149 197.98C19.8349 198.457 20.2646 198.934 20.7091 199.406C49.7863 230.768 98.8915 232.718 130.381 203.754C134.293 200.155 137.824 196.166 140.915 191.852C141.199 191.453 141.487 191.054 141.765 190.646C148.949 180.281 153.461 168.32 154.907 155.81C154.966 155.382 155.01 154.954 155.049 154.521C155.303 152.007 155.43 149.453 155.43 146.866C155.449 129.866 149.818 113.339 139.416 99.8657V99.8608ZM153.608 155.81C152.197 167.819 147.914 179.313 141.111 189.328C140.935 189.59 140.754 189.858 140.569 190.12C140.525 190.193 140.476 190.266 140.422 190.334C140.378 190.407 140.324 190.475 140.276 190.548C116.101 224.946 68.5103 233.317 33.9731 209.24C29.1138 205.855 24.6697 201.915 20.7237 197.499C20.2793 197.008 19.8446 196.516 19.4295 196.015C-4.05108 168.466 -4.78851 128.251 17.6617 99.8608C18.0035 99.428 18.3502 98.9951 18.7019 98.5719C18.9363 98.2801 19.1756 97.998 19.4295 97.7159C19.8446 97.2149 20.2793 96.7236 20.7237 96.2324C35.194 80.0161 55.9446 70.7406 77.7306 70.7552C78.6976 70.7552 79.6548 70.7747 80.6071 70.8136C81.1052 70.8282 81.5985 70.8525 82.0917 70.8768C103.399 72.0879 123.227 82.1368 136.759 98.5719C137.116 98.9999 137.458 99.428 137.8 99.8608C150.018 115.338 155.742 134.93 153.769 154.521C153.725 154.954 153.676 155.387 153.623 155.81H153.608ZM140.417 190.329H140.564V190.115C140.52 190.188 140.471 190.261 140.412 190.329H140.417Z"
        fill="#CCCCCC" />
    <path
        d="M67.9191 44.9132C67.9191 45.2683 67.9094 45.6185 67.8849 45.9687C67.7531 47.9823 67.2452 49.9474 66.3808 51.7713C66.3759 51.7859 66.3661 51.8005 66.3612 51.8151C66.3222 51.8978 66.2782 51.9853 66.2391 52.068C65.9803 52.5836 65.6971 53.0846 65.3845 53.571C62.4885 58.0895 57.5267 60.8717 52.1498 60.9884L52.311 70.1326L54.3914 69.043L54.7626 69.7483L52.3256 71.0275L52.6235 88.0123V88.2409L51.0168 88.5959V88.3673L51.5247 60.9933C47.2173 60.93 43.115 59.1547 40.136 56.0564C40.0335 55.9543 39.9358 55.8424 39.8381 55.7354L39.8283 55.7208C38.5977 54.3832 37.6063 52.8511 36.8884 51.1876C36.903 51.2071 36.9226 51.2217 36.9372 51.2411C30.2857 34.592 34.1535 26.873 44.5948 30.5161C44.6485 30.4869 44.7071 30.4625 44.7657 30.4334C52.3354 26.8 61.4385 29.553 65.7019 36.7613C65.7996 36.9267 65.8973 37.0921 65.9852 37.2623C67.2647 39.6067 67.9289 42.2381 67.9289 44.9083L67.9191 44.9132Z"
        fill="#E5E5E5" />
    <path
        d="M86.9018 30.7547C86.7065 33.9502 85.8763 37.0729 84.46 39.9474C81.7349 45.4437 76.9489 49.612 70.9811 51.1636C70.9714 51.1685 70.9616 51.1733 70.9469 51.1685C69.4476 51.5576 67.9044 51.7765 66.3563 51.8202H66.2244C66.0633 51.8251 65.9021 51.8251 65.741 51.8251C65.6286 51.8251 65.5212 51.8251 65.4089 51.8202C53.8541 51.6451 44.5801 42.2627 44.5801 30.7547V30.5212C44.5898 29.1788 44.7852 27.8412 45.1612 26.5474C45.1612 26.5425 45.1661 26.5328 45.1661 26.5279C45.8694 24.2857 47.1391 22.2574 48.8533 20.6377C53.0972 16.4596 59.8122 13.8331 65.7361 9.67936C78.7168 0.583859 88.2497 9.63559 86.8921 30.7498L86.9018 30.7547Z"
        fill="#E5E5E5" />
    <path opacity="0.2"
        d="M84.4599 39.9423C81.7348 45.4385 76.9488 49.6069 70.981 51.1584C70.9713 51.1633 70.9615 51.1682 70.9468 51.1633C69.4476 51.533 67.9141 51.7372 66.3757 51.7713H66.2243C65.9509 51.7762 65.6823 51.7762 65.4088 51.7713C53.8199 51.4843 44.6191 41.9754 44.7509 30.4333C44.7704 29.1249 44.9072 27.8263 45.166 26.5422C45.166 26.5373 45.1709 26.5276 45.1709 26.5228C45.8742 24.2805 47.1439 22.2522 48.8581 20.6326C46.4602 32.0238 53.7906 43.1914 65.2232 45.5795C65.3209 45.599 65.4234 45.6185 65.5211 45.6379C65.7213 45.6768 65.9216 45.7157 66.1218 45.7498C66.7029 45.8471 67.289 45.9151 67.875 45.9638C74.0187 46.4599 80.0744 44.2614 84.455 39.9374L84.4599 39.9423Z"
        fill="black" />
    <path
        d="M66.4642 64.9722L69.6581 63.299L69.1697 62.3749L66.4397 63.8049L66.2346 52.0731V52.0683L66.2297 51.8202V51.7764L66.1272 45.7549L65.9758 37.2723L65.8635 30.7498H65.8049L65.6925 36.7713L65.5265 45.6479L65.4142 51.7716V51.8251L65.38 53.5712L64.7353 88.6302L64.7305 88.8588L66.889 89.462L66.8842 89.2285L66.4642 64.9722Z"
        fill="#7D7D95" />
    <path
        d="M80.4845 121.875C86.1349 124.686 89.5779 128.402 89.5779 132.478C89.5779 141.258 73.6279 148.374 53.9468 148.374C45.3906 148.374 37.5426 147.026 31.3989 144.784C37.9235 148.033 47.3929 150.076 57.9367 150.076C77.6129 150.076 93.5679 142.96 93.5679 134.181C93.5679 129.219 88.4693 124.788 80.4845 121.87V121.875Z"
        fill="#F1F1F1" />
    <path
        d="M93.055 127.906C99.433 131.082 103.316 135.275 103.316 139.871C103.316 149.779 85.3144 157.809 63.1133 157.809C53.4583 157.809 44.6042 156.292 37.6743 153.758C45.034 157.42 55.7194 159.731 67.616 159.731C89.822 159.731 107.818 151.7 107.818 141.792C107.818 136.194 102.065 131.194 93.055 127.906Z"
        fill="#F1F1F1" />
    <path
        d="M75.6744 124.531C79.6546 126.515 82.0818 129.132 82.0818 132.001C82.0818 138.188 70.8445 143.203 56.9798 143.203C51.5785 143.271 46.2064 142.415 41.0933 140.674C45.6888 142.96 52.3599 144.404 59.7879 144.404C73.6526 144.404 84.8899 139.39 84.8899 133.203C84.8899 129.706 81.2955 126.583 75.6744 124.531Z"
        fill="#F1F1F1" />
    <path
        d="M54.4693 136.379C46.2795 136.379 42.2993 134.142 40.3995 132.264C39.4326 131.301 39.4326 129.745 40.3995 128.782C40.8635 128.32 41.4935 128.057 42.1528 128.057H70.7173C71.7477 128.057 72.5877 128.889 72.5877 129.92C72.5877 130.489 72.324 131.034 71.8747 131.384C68.964 133.66 63.5822 136.379 54.4693 136.379Z"
        fill="#7D7D95" />
    <path
        d="M60.4034 107.745C58.1765 106.062 55.383 105.299 52.6042 105.62C57.5367 106.831 53.6445 113.621 58.1374 120.659C60.5841 124.496 55.8226 126.379 51.2905 126.89C57.1265 128.29 62.9966 124.72 64.408 118.908C65.4238 114.725 63.8513 110.343 60.4083 107.74L60.4034 107.745Z"
        fill="#7D7D95" />
    <path d="M55.3439 104.209H54.2939V129.141H55.3439V104.209Z" fill="#7D7D95" />
    <path
        d="M156.562 111.203C144.812 102.964 128.584 105.77 120.311 117.468C112.038 129.171 103.736 159.852 109.596 177.625C127.075 159.235 153.93 157.323 162.857 147.308C172.395 136.603 168.313 119.443 156.567 111.203H156.562Z"
        fill="#514EB6" />
    <path
        d="M141.228 137.697C145.913 137.697 149.711 133.915 149.711 129.249C149.711 124.583 145.913 120.8 141.228 120.8C136.543 120.8 132.745 124.583 132.745 129.249C132.745 133.915 136.543 137.697 141.228 137.697Z"
        fill="white" />
    <path
        d="M102.422 186.832C105.491 186.832 107.979 184.354 107.979 181.297C107.979 178.24 105.491 175.762 102.422 175.762C99.3525 175.762 96.8643 178.24 96.8643 181.297C96.8643 184.354 99.3525 186.832 102.422 186.832Z"
        fill="#514EB6" />
    <path opacity="0.2"
        d="M150.307 127.298C152.67 131.33 151.303 136.506 147.259 138.855C143.216 141.204 138.015 139.847 135.656 135.82C139.177 138.899 144.539 138.548 147.63 135.042C150.038 132.308 150.419 128.344 148.578 125.202C149.267 125.805 149.853 126.51 150.316 127.298H150.307Z"
        fill="#231F20" />
    <path opacity="0.2"
        d="M162.872 147.352C153.944 157.372 127.094 159.278 109.611 177.669C109.064 175.986 108.644 174.269 108.355 172.523C125.824 155.805 151.185 153.695 159.81 144.015C167.526 135.353 166.324 122.463 159.36 113.49C168.913 122.308 171.609 137.542 162.872 147.352Z"
        fill="#231F20" />
    <path d="M254.377 300.215H248.043L245.03 275.885H254.377V300.215Z" fill="#FFB6B6" />
    <path
        d="M255.994 306.334H235.57V306.076C235.57 301.703 239.13 298.157 243.521 298.157L247.252 295.336L254.211 298.157H255.994V306.334Z"
        fill="#151530" />
    <path d="M229.832 296.241L223.654 297.632L215.333 274.558L224.45 272.51L229.832 296.241Z"
        fill="#FFB6B6" />
    <path
        d="M232.762 301.854L212.842 306.334L212.783 306.081C211.816 301.815 214.502 297.579 218.785 296.616L221.798 293.045L229.212 294.266L230.95 293.877L232.757 301.849L232.762 301.854Z"
        fill="#151530" />
    <path
        d="M262.401 151.467C265.371 160.387 265.058 170.071 261.688 180.461L260.248 238.969C262.631 241.581 264.125 252.223 260.453 259.84C255.554 270.015 258.929 284.086 255.467 290.837H245.426L242.96 263.351L240.786 260.253L240.454 235.462C239.121 232.315 237.573 229.197 240.288 225.554L240.215 221.249L239.829 198.297L224.685 220.354C224.255 225.345 221.691 227.962 218.302 229.654L222.995 250.272C231.2 257.267 229.192 268.089 229.329 278.109L232.02 289.933L219.66 291.032L214.205 274.996L208.071 265.112L197.405 225.607L204.843 208.414L207.885 201.385L224.866 162.138L262.411 151.452L262.401 151.467Z"
        fill="#151530" />
    <path
        d="M157.466 119.652C159.336 121.51 162.369 121.51 164.235 119.647C164.435 119.448 164.616 119.234 164.777 119L181.152 123.582L178.466 115.197L163.331 112.127C161.055 110.761 158.096 111.495 156.729 113.762C155.581 115.659 155.889 118.091 157.476 119.647L157.466 119.652Z"
        fill="#FFB8B8" />
    <path
        d="M170.856 112.882L186.836 112.765C191.148 111.563 195.69 111.461 200.051 112.468L200.901 112.663L207.572 111.909C211.547 103.99 218.926 96.8355 228.83 90.2449C234.671 85.5561 243.222 86.4705 247.93 92.2878C248.262 92.7012 248.575 93.1341 248.858 93.5816C252.682 99.6614 251.085 107.658 245.21 111.811L215.029 129.482C212.382 131.034 209.374 131.87 206.302 131.909L206.229 131.948L189.014 125.523L180.155 124.399L168.146 120.922L170.856 112.872V112.882Z"
        fill="#514EB6" />
    <path
        d="M234.979 75.736C243.308 75.736 250.06 69.0114 250.06 60.7163C250.06 52.4211 243.308 45.6965 234.979 45.6965C226.65 45.6965 219.898 52.4211 219.898 60.7163C219.898 69.0114 226.65 75.736 234.979 75.736Z"
        fill="#FFB8B8" />
    <path
        d="M249.059 70.2445C250.177 68.654 250.968 66.1151 251.437 64.2522C252.702 59.3007 251.803 54.0477 248.956 49.7967C248.439 48.9406 247.691 48.2402 246.803 47.7733C245.889 47.3696 244.688 47.462 244.053 48.2305C244.053 46.8686 243.482 45.5699 242.481 44.6409C241.484 43.7265 240.288 43.0553 238.984 42.6856C233.876 41.134 228.323 42.5008 224.528 46.246C223.801 46.9853 224.059 43.2985 223.254 43.9454C222.472 44.6409 221.447 45.0057 220.397 44.9619C219.366 44.8501 217.466 48.5174 217.457 47.4814C216.372 48.5661 215.894 53.1382 216.231 54.6314C216.568 56.1246 221.622 55.4631 223.073 55.9787C224.035 56.3192 225.075 56.3289 226.071 56.5478C229.729 57.4914 232.108 61.0031 231.61 64.7288C232.244 63.8777 233.016 63.1335 233.89 62.5255C234.784 61.9175 235.917 61.7765 236.933 62.1461C237.846 62.6325 238.515 63.474 238.788 64.4711C239.116 65.439 239.243 66.4604 239.58 67.4234C240.561 70.2494 241.069 73.2164 243.814 73.8876C245.977 74.4177 247.54 72.4041 249.064 70.2348L249.059 70.2445Z"
        fill="#151530" />
    <path
        d="M263.685 148.49L262.029 145.192C260.003 132.687 258 121.024 260.721 110.532C260.892 101.374 258.049 92.7693 250.157 88.0707L246.597 85.9501L244.795 81.3975L228.2 81.8012L228.151 87.7692L222.208 97.21V97.2489L222.579 148.621L224.22 153.923L221.744 160.091L223.058 164.025L255.773 158.816L259.578 158.208C260.017 158.067 260.442 157.882 260.843 157.659C262.21 156.905 263.28 155.713 263.88 154.278C263.915 154.196 263.944 154.118 263.973 154.035C264.232 153.364 264.378 152.659 264.413 151.944C264.471 150.747 264.222 149.56 263.685 148.49Z"
        fill="#514EB6" />
    <path opacity="0.2"
        d="M264.413 151.943C264.379 152.658 264.232 153.364 263.973 154.035L260.843 157.659C260.442 157.882 260.018 158.067 259.578 158.208L255.774 158.816L261.277 148.51L249.181 122.133L264.413 151.943Z"
        fill="black" />
    <path
        d="M277.58 182.45C275.284 180.893 274.693 177.776 276.256 175.49C276.422 175.246 276.613 175.018 276.818 174.809L268.857 158.875L278.073 159.993L284.221 174.95C286.082 177.022 285.906 180.208 283.821 182.061C282.077 183.612 279.499 183.773 277.575 182.45H277.58Z"
        fill="#FFB8B8" />
    <path
        d="M245.303 127.629L251.344 126.797C251.344 126.797 251.925 135.868 254.817 137.24C257.708 138.612 256.731 138.84 257.073 140.294C257.415 141.749 258.953 143.947 261.243 144.949C263.534 145.951 273.941 171.166 273.941 171.166L282.707 169.128C281.896 166.939 281.364 164.658 281.115 162.338C280.807 158.831 276.817 150.552 275.499 149.322C274.18 148.091 274.703 145.927 274.024 143.018C273.345 140.11 273.814 142.804 272.681 137.955C271.548 133.106 258.777 104.039 258.245 99.5593C257.713 95.0796 251.447 92.4434 251.447 92.4434L246.578 93.5767L245.308 127.624L245.303 127.629Z"
        fill="#514EB6" />
    <path
        d="M144.988 307H335.099C335.436 307 335.709 306.728 335.709 306.392C335.709 306.056 335.436 305.784 335.099 305.784H144.988C144.651 305.784 144.377 306.056 144.377 306.392C144.377 306.728 144.651 307 144.988 307Z"
        fill="#CCCCCC" />
</svg>
